<svg version="1.1" viewBox="0.0 0.0 960.0 960.0" fill="none" stroke="none" stroke-linecap="square" stroke-miterlimit="10" xmlns:xlink="http://www.w3.org/1999/xlink" xmlns="http://www.w3.org/2000/svg"><clipPath id="p.0"><path d="m0 0l960.0 0l0 960.0l-960.0 0l0 -960.0z" clip-rule="nonzero"/></clipPath><g clip-path="url(#p.0)"><path fill="#000000" fill-opacity="0.0" d="m0 0l960.0 0l0 960.0l-960.0 0z" fill-rule="evenodd"/><path fill="#000000" fill-opacity="0.0" d="m0 482.02887l0 0c0 -265.09668 214.90332 -480.0 480.0 -480.0l0 0c127.303894 0 249.3938 50.571285 339.41125 140.58875c90.017456 90.017456 140.58875 212.10733 140.58875 339.41125l0 0c0 265.09668 -214.90332 480.0 -480.0 480.0l0 0c-265.09668 0 -480.0 -214.90332 -480.0 -480.0z" fill-rule="evenodd"/><path stroke="#3d3c38" stroke-width="24.0" stroke-linejoin="round" stroke-linecap="butt" d="m0 482.02887l0 0c0 -265.09668 214.90332 -480.0 480.0 -480.0l0 0c127.303894 0 249.3938 50.571285 339.41125 140.58875c90.017456 90.017456 140.58875 212.10733 140.58875 339.41125l0 0c0 265.09668 -214.90332 480.0 -480.0 480.0l0 0c-265.09668 0 -480.0 -214.90332 -480.0 -480.0z" fill-rule="evenodd"/><path fill="#3d3c38" d="m747.97876 102.17585l66.01575 59.937004l-628.4095 692.18896l-66.01574 -59.93701z" fill-rule="evenodd"/><path stroke="#3d3c38" stroke-width="16.0" stroke-linejoin="round" stroke-linecap="butt" d="m747.97876 102.17585l66.01575 59.937004l-628.4095 692.18896l-66.01574 -59.93701z" fill-rule="evenodd"/><path fill="#000000" fill-opacity="0.0" d="m-22.640419 479.00525l0 0c0 -275.0987 224.02682 -498.11023 500.37793 -498.11023l0 0c132.70853 0 259.9816 52.479317 353.82065 145.89311c93.83905 93.413795 146.55731 220.11008 146.55731 352.21713l0 0c0 275.0987 -224.02686 498.11023 -500.37796 498.11023l0 0c-276.3511 0 -500.37793 -223.01154 -500.37793 -498.11023z" fill-rule="evenodd"/><path stroke="#3d3c38" stroke-width="24.0" stroke-linejoin="round" stroke-linecap="butt" d="m-22.640419 479.00525l0 0c0 -275.0987 224.02682 -498.11023 500.37793 -498.11023l0 0c132.70853 0 259.9816 52.479317 353.82065 145.89311c93.83905 93.413795 146.55731 220.11008 146.55731 352.21713l0 0c0 275.0987 -224.02686 498.11023 -500.37796 498.11023l0 0c-276.3511 0 -500.37793 -223.01154 -500.37793 -498.11023z" fill-rule="evenodd"/></g></svg>
