<?xml version="1.0" standalone="no"?>
<!DOCTYPE svg PUBLIC "-//W3C//DTD SVG 20010904//EN"
 "http://www.w3.org/TR/2001/REC-SVG-20010904/DTD/svg10.dtd">
<svg version="1.0" xmlns="http://www.w3.org/2000/svg"
 width="300.000000pt" height="300.000000pt" viewBox="0 0 300.000000 300.000000"
 preserveAspectRatio="xMidYMid meet">
<metadata>
Created by potrace 1.11, written by Peter Selinger 2001-2013
</metadata>
<g transform="translate(0.000000,300.000000) scale(0.100000,-0.100000)"
fill="#000000" stroke="none">
<path d="M1385 2340 c-228 -47 -414 -232 -461 -459 -27 -135 -6 -282 58 -404
46 -86 155 -194 244 -240 233 -120 504 -78 689 108 368 368 110 999 -410 1003
-44 0 -98 -3 -120 -8z m240 -115 c145 -38 267 -149 326 -297 24 -62 34 -208
18 -278 -26 -114 -121 -244 -222 -303 -256 -151 -581 -40 -694 235 -31 77 -41
200 -23 279 33 143 136 274 261 332 103 48 229 60 334 32z"/>
<path d="M1482 2142 c-1 -14 -8 -29 -15 -34 -6 -4 -9 -8 -4 -8 4 0 1 -16 -7
-35 -8 -19 -12 -35 -8 -35 3 0 1 -5 -5 -11 -6 -6 -47 -11 -92 -11 -73 0 -81
-2 -81 -19 0 -10 5 -19 11 -19 6 0 16 -6 24 -12 25 -24 55 -48 61 -48 10 0 34
-28 34 -40 0 -6 -5 -8 -12 -4 -8 5 -9 2 -5 -9 3 -10 2 -17 -4 -17 -6 0 -7 -5
-4 -10 8 -13 -4 -52 -14 -46 -10 6 -8 -61 2 -70 4 -4 7 -2 7 4 0 7 7 12 15 12
8 0 15 5 15 12 0 6 3 8 7 5 3 -4 13 2 20 13 8 11 19 18 24 15 5 -4 9 -1 9 5 0
6 5 8 10 5 6 -4 9 -1 8 5 -5 22 41 21 54 0 7 -11 18 -20 24 -20 5 0 19 -8 30
-17 11 -10 30 -24 42 -31 21 -12 22 -11 19 10 -2 13 -6 30 -9 38 -3 8 -11 33
-18 55 -6 22 -14 46 -16 53 -3 7 2 12 12 12 9 0 14 3 11 7 -7 6 20 30 36 32 4
0 19 12 33 26 14 14 29 23 33 21 3 -3 7 4 7 14 0 16 -9 17 -83 16 l-83 -1 -15
31 c-8 17 -17 42 -19 55 -3 13 -5 25 -7 27 -1 1 -3 7 -4 12 -1 6 -4 13 -5 18
-1 4 -2 9 -2 12 0 3 -7 6 -17 7 -11 1 -17 -7 -19 -25z"/>
<path d="M1403 1664 c4 -8 -41 -11 -154 -11 -88 -1 -162 -3 -164 -5 -2 -2 2
-16 10 -31 8 -16 16 -36 17 -45 2 -9 10 -26 18 -37 30 -40 135 -145 146 -145
5 0 20 -9 32 -20 12 -12 22 -16 22 -11 0 5 15 2 33 -7 41 -22 226 -23 272 -2
17 7 32 14 35 15 31 8 50 18 50 27 0 6 3 9 6 5 7 -6 16 1 77 61 48 46 91 118
81 133 -4 7 -3 9 3 6 6 -4 16 6 22 23 l10 30 -47 1 c-77 2 -86 4 -101 13 -9 6
-12 5 -7 -2 8 -14 -186 -12 -196 3 -5 7 -8 6 -8 -1 0 -15 -131 -16 -149 -1
-10 8 -12 8 -8 1z"/>
<path d="M1091 1041 c-21 -39 15 -76 57 -60 19 7 23 15 20 41 -3 29 -7 33 -35
36 -23 2 -34 -2 -42 -17z"/>
<path d="M18 1032 c-16 -3 -18 -20 -18 -188 0 -115 4 -184 10 -185 69 -9 71
-6 69 94 -1 50 -1 100 0 111 1 12 26 -15 72 -75 93 -123 107 -138 127 -134 9
2 22 4 28 4 11 1 15 370 4 372 -32 6 -62 4 -67 -4 -3 -6 -6 -57 -6 -114 1 -56
-2 -103 -6 -102 -3 0 -41 49 -85 109 -77 106 -93 120 -128 112z"/>
<path d="M2158 1034 c-2 -1 -15 -4 -28 -6 -39 -6 -90 -40 -92 -63 -2 -35 -3
-40 -12 -54 -6 -10 -5 -12 2 -7 8 5 12 0 12 -13 0 -12 7 -21 16 -21 8 0 13 -4
10 -8 -4 -7 76 -47 94 -47 3 0 14 -7 26 -15 24 -17 39 -50 23 -50 -6 0 -9 -9
-6 -20 4 -16 2 -18 -13 -10 -9 5 -20 6 -24 3 -13 -13 -55 -11 -67 3 -10 12
-14 12 -20 2 -7 -10 -9 -9 -9 3 0 9 -9 19 -20 22 -11 3 -18 1 -14 -4 3 -5 -1
-9 -8 -9 -10 0 -10 -2 0 -9 8 -4 13 -12 11 -16 -5 -16 27 -45 49 -45 13 0 20
-4 17 -10 -7 -11 87 -14 98 -3 4 3 1 13 -5 22 -10 13 -8 12 8 -1 19 -17 21
-16 49 13 36 39 42 101 12 135 -11 13 -23 21 -27 19 -5 -3 -10 2 -14 10 -3 8
-14 15 -25 15 -11 0 -22 4 -25 9 -3 4 -19 11 -36 14 -22 5 -30 12 -30 27 0 14
-4 19 -12 15 -7 -4 -5 0 5 8 9 8 17 18 17 23 0 5 22 9 50 9 27 0 50 -3 50 -7
0 -15 41 -8 47 8 8 23 -19 45 -66 54 -22 4 -42 6 -43 4z"/>
<path d="M730 1017 c-17 -8 -26 -23 -28 -42 -2 -17 -10 -34 -18 -38 -18 -11
-18 -36 1 -43 12 -5 15 -26 15 -98 0 -104 11 -130 60 -141 21 -5 39 -2 55 9
29 19 33 46 7 46 -33 0 -42 21 -42 102 0 68 2 78 18 78 21 0 42 18 42 37 0 8
-12 13 -30 13 -29 0 -30 2 -30 45 0 49 -8 53 -50 32z"/>
<path d="M1888 1018 c-23 -8 -28 -16 -28 -44 0 -24 -5 -34 -15 -34 -9 0 -15
-9 -15 -25 0 -16 6 -25 15 -25 12 0 15 -17 15 -93 0 -104 11 -131 59 -142 20
-4 38 -1 55 10 30 20 34 45 8 45 -33 0 -42 21 -42 102 0 71 2 78 20 78 16 0
40 26 40 44 0 3 -13 6 -30 6 -29 0 -30 2 -30 45 0 48 -4 51 -52 33z"/>
<path d="M2385 1022 c-31 -7 -58 -29 -45 -37 8 -5 8 -10 0 -20 -7 -8 -9 -19
-5 -25 4 -6 1 -9 -7 -8 -7 2 -14 -8 -16 -22 -2 -14 0 -22 4 -17 12 12 33 -46
21 -60 -6 -9 -6 -13 3 -13 10 0 10 -3 1 -14 -8 -10 -9 -16 -1 -21 6 -3 7 -12
3 -18 -16 -26 17 -114 38 -101 5 3 9 0 9 -5 0 -20 46 -11 67 13 24 27 20 36
-13 36 -26 0 -30 13 -29 105 0 65 2 70 23 73 12 2 22 7 22 12 0 5 3 16 6 25 4
9 3 15 -2 14 -5 -1 -12 0 -16 1 -5 1 -14 3 -20 4 -8 1 -13 16 -13 38 0 42 -3
46 -30 40z"/>
<path d="M887 934 c-21 -11 -27 -20 -21 -32 4 -9 9 -60 10 -112 1 -52 3 -103
3 -113 1 -15 8 -18 39 -15 l37 3 1 91 c1 118 5 128 47 120 28 -5 35 -2 49 22
13 22 14 32 6 40 -17 17 -50 15 -76 -4 -21 -15 -25 -15 -41 0 -21 19 -19 19
-54 0z"/>
<path d="M1310 932 c-72 -36 -103 -138 -65 -212 47 -91 235 -88 235 4 0 13 -4
13 -37 0 -44 -19 -98 -11 -113 15 -8 16 -5 19 25 24 53 9 105 37 119 66 41 83
-68 152 -164 103z m79 -41 c24 -15 5 -60 -32 -76 -17 -7 -35 -11 -39 -9 -10 7
12 67 30 82 19 14 22 15 41 3z"/>
<path d="M1535 932 c-19 -16 -20 -27 -17 -144 l4 -128 39 0 39 0 1 48 c1 26 1
64 0 84 -4 53 6 74 39 88 50 21 60 3 60 -101 0 -76 3 -92 20 -109 11 -11 29
-20 40 -20 20 0 60 32 60 49 0 5 -9 11 -20 14 -18 5 -20 14 -20 94 0 63 -4 95
-15 110 -22 31 -72 38 -124 17 -40 -16 -44 -16 -53 -1 -12 21 -28 21 -53 -1z"/>
<path d="M2580 932 c0 -11 -3 -13 -8 -5 -11 17 -48 -7 -47 -31 0 -19 25 -37
25 -18 0 17 90 18 101 0 15 -23 10 -28 -36 -40 -25 -7 -45 -16 -45 -20 0 -4
-7 -5 -15 -2 -8 4 -15 1 -15 -4 0 -6 -9 -13 -20 -17 -11 -3 -19 -9 -18 -13 1
-4 -2 -20 -7 -36 -5 -19 -4 -31 5 -36 6 -4 11 -10 11 -14 -3 -17 1 -22 27 -33
30 -14 90 -14 98 -1 7 11 64 10 64 -2 0 -19 37 -10 58 15 l22 26 -21 8 c-20 7
-22 15 -24 96 -1 57 -6 90 -13 93 -7 2 -12 10 -12 17 0 14 -33 25 -92 31 -31
3 -38 1 -38 -14z m76 -144 c11 -27 7 -68 -7 -68 -6 0 -7 -5 -4 -10 4 -6 -3 -8
-17 -6 -13 3 -30 5 -39 5 -17 1 -34 51 -18 51 5 0 9 6 9 13 0 7 10 14 22 14
13 1 24 7 26 13 6 17 18 11 28 -12z"/>
<path d="M2840 942 c-25 -8 -51 -40 -39 -47 6 -4 8 -13 5 -21 -3 -7 -1 -16 3
-18 5 -3 5 -24 1 -46 -4 -22 -3 -40 2 -40 5 0 4 -9 -2 -19 -7 -14 -6 -21 3
-24 6 -3 7 -6 1 -6 -15 -1 -5 -59 13 -65 9 -4 12 -1 7 7 -5 9 -4 9 7 0 16 -15
33 -17 24 -3 -3 6 0 10 7 10 9 0 14 11 13 30 0 17 -4 30 -10 30 -7 0 -7 3 0 8
6 4 10 14 10 22 0 8 -4 18 -10 22 -6 5 -6 8 1 8 6 0 11 7 11 15 0 8 -5 15 -10
15 -5 0 -3 7 4 17 8 9 13 18 11 20 -4 6 22 28 36 31 6 1 12 -2 12 -7 0 -5 9
-7 20 -4 11 3 17 9 14 14 -3 5 2 12 10 15 21 8 21 24 0 24 -8 0 -12 5 -9 10
11 18 -57 1 -71 -18 -8 -11 -13 -12 -14 -4 0 6 -6 12 -14 12 -8 0 -16 4 -18 9
-1 4 -10 6 -18 3z"/>
<path d="M369 918 c0 -13 0 -66 -1 -118 0 -93 1 -95 31 -122 35 -32 73 -36
126 -14 30 13 37 13 49 0 21 -20 41 -17 73 11 l28 25 -22 6 c-27 7 -25 -2 -27
127 l-1 102 -40 0 -40 0 -1 -85 c-1 -47 -2 -92 -3 -101 -1 -21 -41 -38 -66
-29 -18 6 -21 18 -25 111 l-5 104 -37 3 c-34 3 -38 1 -39 -20z"/>
<path d="M1090 811 c0 -123 1 -131 22 -145 31 -22 54 -20 78 6 25 27 25 34 0
41 -18 5 -20 14 -20 116 l0 111 -40 0 -40 0 0 -129z"/>
</g>
</svg>
